<?xml version="1.0" encoding="UTF-8"?>
<svg version="1.1" viewBox="0 0 1774 887" width="1774" height="887" xmlns="http://www.w3.org/2000/svg">
<path transform="translate(0)" d="m0 0h1774v887h-1774z"/>
<path transform="translate(1384,331)" d="m0 0h22l19 3 17 5 21 11 13 10 15 15 10 14 9 17v2l-15 4-9 5-5 4h-2l-4-6-9-5-11-1-10 3-6 5-4 8-2 11h-2l-9-14-7-8-9-4-10-1-9 3-7 6-4 8h-2l-5-5-9-6-12-5-13-2-14 1-13 4-12 7-3 3h-2l-4-6-5-5 3-9 8-16 8-11 8-10 11-10 15-10 15-7 16-5z" fill="#D54B74"/>
<path transform="translate(1424,508)" d="m0 0 5 5 9 12 9 6 4 1h14l10-5 3-4 5 2 8 4 10 4-2 5-8 10-14 14-15 10-19 9-21 6-16 2h-19l-20-3-16-5-12-5-11-6-12-9-10-9-10-12-8-13 1-5 2-3 4 2 11 7 16 5h21l13-3 13-7 7-5 6 9 10 5 9 1 10-3 8-7 4-10z" fill="#F57E53"/>
<path transform="translate(1324,424)" d="m0 0h17l10 3 10 6 9 10 5 10 3 13v9l-3 13-6 12-9 9-9 5-9 3h-19l-12-4-9-7-7-8-5-11-2-8v-18l4-13 7-10 9-8 12-5z" fill="#FAFAFA"/>
<path transform="translate(1384,331)" d="m0 0h22l19 3 16 5-1 2-10 2h-9l-4 1v3l-4 1-1 4-11 9-3 1-1 3-5 3-12 11-3 1v2l-7 3h-4l-1 3-9 2-5 3-7 3-4 4-1 5 3 3h-13l-16 3-14 7-6 5h-2l-4-6-5-5 3-9 8-16 8-11 8-10 11-10 15-10 15-7 16-5z" fill="#CB3D84"/>
<path transform="translate(740,425)" d="m0 0h38l10 4 8 8 4 9 1 4v11l-3 9-4 6-8 7-9 3h-25v23l-3 5-2 2h-8l-4-3-1-3v-79l2-4z" fill="#FAFAFA"/>
<path transform="translate(822,425)" d="m0 0h39l10 4 8 8 4 8 1 4v12l-3 9-4 6-8 7-9 3h-26v26l-4 4h-8l-5-5v-81z" fill="#FAFAFA"/>
<path transform="translate(1395,425)" d="m0 0h8l6 5 10 14 15 20 13 17 1 3h2v-55l4-4h8l4 4 1 3v75l-2 7-3 2h-9l-5-5-14-18-14-19-13-17-1 55-4 4h-8l-4-4v-82z" fill="#FAFAFA"/>
<path transform="translate(422,425)" d="m0 0h9l4 4 1 3v29h42v-30l3-5 2-1h8l4 4 1 2v80l-5 5-5 1-6-3-2-4v-32h-42v32l-3 5-2 1h-8l-5-5v-81z" fill="#FAFAFA"/>
<path transform="translate(1375,518)" d="m0 0 3 3 4 6 10 5 9 1 10-2 1 2 4 2-6 3-4 6-12 5-6 5-7 6-6 3-2 5-8 4-2 4-1 3 1 5-7-1-15-6-13-7-12-9-10-9-10-12-8-13 1-5 2-3 4 2 11 7 16 5h21l13-3 13-7z" fill="#F17458"/>
<path transform="translate(673,425)" d="m0 0h10l4 4 10 24 13 31 9 21v7l-4 4-5 1-5-3-3-5-5-11v-2l-39 1-7 16-3 3-5 1-6-3-1-2v-7l11-25 19-45 4-8z" fill="#FAFAFA"/>
<path transform="translate(1137,425)" d="m0 0h9l5 6 18 42 12 29 2 5-1 5-4 4h-8l-4-4-6-15-39-1-3 9-4 8-3 3h-8l-4-5 1-8 11-24 11-26 11-25z" fill="#FAFAFA"/>
<path transform="translate(1508,424)" d="m0 0h18l12 4 8 6 3 5-1 6-4 4h-7l-8-6-6-2h-13l-7 4-1 2v6l5 5 11 3 16 4 10 6 5 7 2 6v11l-4 10-9 8-11 4-13 1-12-2-12-6-5-5-2-3v-7l5-5h6l10 8 5 2h15l7-3 2-4-1-7-4-4-16-4-13-4-6-4-5-5-4-9v-11l4-9 9-8z" fill="#FAFAFA"/>
<path transform="translate(223,425)" d="m0 0h8l5 5 1 54 3 7 4 5 6 3 9 1 10-3 6-7 2-7 1-54 4-4h8l5 5v57l-4 12-7 9-9 6-9 3h-17l-11-4-6-4-7-7-5-10-2-10v-51l3-5z" fill="#FAFAFA"/>
<path transform="translate(355,424)" d="m0 0h17l12 4 8 6 3 4-1 7-5 4h-6l-9-6-7-2h-8l-11 4-5 4-6 12-1 13 2 9 5 8 7 6 5 2 11 1 8-2 7-4 4-2 5 1 4 4 1 7-5 6-12 6-15 2-14-2-12-6-10-9-6-10-4-13v-15l3-11 5-10 10-10 12-6z" fill="#FAFAFA"/>
<path transform="translate(1049,424)" d="m0 0h17l10 3 8 5 5 6-1 7-5 4-7-1-8-5-7-2h-7l-10 3-6 4-6 10-1 4v17l4 9 6 7 9 4 10 1 8-2 11-6 5 1 5 5v6l-6 7-11 5-16 2-12-2-10-4-9-7-8-10-4-10-2-9v-11l2-10 6-12 8-9 9-6z" fill="#FAFAFA"/>
<path transform="translate(1478,523)" d="m0 0 5 2 8 4 10 4-2 5-8 10-14 14-15 10-19 9-21 6-16 2h-19v-2h-8v-1l11-1 4-4h2l1-2 5-5 4-3 11-7 8-4 4-4 6-3 4-5 5-3h5v-2h11l5-3 3-3h2v-2h-2v-4l8-5z" fill="#F7864F"/>
<path transform="translate(1480,365)" d="m0 0 7 6 8 9 11 18 4 8v2l-15 4-9 5-5 4h-2l-4-6-9-5-11-1-10 3-6 5-4 8-2 11h-2l-9-14-7-8-6-3v-2l7 2 1-3h2v-3l4 1v-2l7-4h3l1-4 5-5 17-8h2v-2l7-1 5-4h3l2-4 2-1z" fill="#E05C6B"/>
<path transform="translate(1329,440)" d="m0 0h8l10 4 6 5 5 10 1 4v15l-4 11-5 6-9 5-5 1h-7l-9-3-8-7-5-10-1-5v-11l3-10 4-6 7-6z"/>
<path transform="translate(521,425)" d="m0 0h67l4 4v8l-5 4h-24v70l-5 5h-8l-4-4-1-2v-69h-24l-4-4-1-5 2-5z" fill="#FAFAFA"/>
<path transform="translate(1181,425)" d="m0 0h67l4 4 1 5-3 5-3 2h-24v71l-5 4h-8l-4-4-1-3v-68h-24l-4-4v-8z" fill="#FAFAFA"/>
<path transform="translate(903,425)" d="m0 0h8l4 4 1 2v69h40l4 3 1 7-2 4-3 2h-52l-5-4-1-2v-80z" fill="#FAFAFA"/>
<path transform="translate(142,425)" d="m0 0h8l4 4 1 70 40 1 4 4v8l-5 4h-52l-5-5v-82z" fill="#FAFAFA"/>
<path transform="translate(134,323)" d="m0 0h24l7 3 4 5 1 2v7l-3 6-2 3 4 2 3 4 1 3v7l-4 7-6 4-6 1h-22l-4-3v-49z" fill="#FAFAFA"/>
<path transform="translate(1392,159)" d="m0 0h1l4 64 3 75v19h-19v-11l4-67 5-60z" fill="#B726A5"/>
<path transform="translate(1631,283)" d="m0 0 2 1-14 11-21 16-14 10-19 14-14 10-36 26-7 4-9-11-2-5 45-26 16-9 21-12 27-15 22-12z" fill="#D44A75"/>
<path transform="translate(1515,539)" d="m0 0 4 2 11 12 7 8 22 24 28 30 9 10 13 14 7 8 5 5-1 2-10-9-14-11-9-8-11-9-14-12-13-11-22-18-13-11-11-9 6-8z" fill="#F6844E"/>
<path transform="translate(1521,195)" d="m0 0 1 3-13 30-12 28-13 29-19 40-3 7-9-3-8-4 1-5 11-19 17-28 16-26 9-15 8-13 13-22z" fill="#CB3C85"/>
<path transform="translate(984,425)" d="m0 0h8l5 5v81l-5 5h-8l-4-4-1-2v-79l3-5z" fill="#FAFAFA"/>
<path transform="translate(1264,425)" d="m0 0h7l5 4v83l-5 4h-8l-4-4-1-3v-78l4-5z" fill="#FAFAFA"/>
<path transform="translate(1260,209)" d="m0 0 3 3 11 18 10 15 13 20 16 25 24 36 1 3-16 9-3-3-14-27-17-34-13-28-15-35z" fill="#B726A4"/>
<path transform="translate(338,320)" d="m0 0 6 1 1 2v18l8-4h8l8 4 5 8 1 3v9l-3 8-5 5-6 3h-9l-7-4-1 3-6 1-3-4v-49z" fill="#FAFAFA"/>
<path transform="translate(1464,585)" d="m0 0 3 1 14 46 15 55 9 34-1 3-11-26-23-53-13-30-8-20 1-4z" fill="#F68440"/>
<path transform="translate(1168,307)" d="m0 0 5 2 34 17 19 10 32 17 27 14 2 4-7 10-3 5-8-4-16-11-36-26-36-27-13-10z" fill="#CB3C85"/>
<path transform="translate(1377,600)" d="m0 0 18 1 1 4-12 57-12 52-4 16h-1l1-20 4-59 4-50z" fill="#F68440"/>
<path transform="translate(1678,403)" d="m0 0h7l-3 2-48 10-70 15-10-10-6-5 4-2 83-7z" fill="#E56561"/>
<path transform="translate(1623,355)" d="m0 0 4 1-29 14-60 28-11 5-4-1-7-14v-2l25-8 64-18z" fill="#DF5A6C"/>
<path transform="translate(1553,262)" d="m0 0v3l-13 18-16 21-10 13-13 16-10 13-3 4-5-2-10-8 2-4 21-21 8-7 11-11 8-7 15-14 8-7z" fill="#D54B75"/>
<path transform="translate(1447,215)" d="m0 0h1l-1 13-9 55-6 36-2 2-16-3-1-2 15-47z" fill="#CA3C86"/>
<path transform="translate(1493,565)" d="m0 0h2l14 26 15 28 17 33 4 7-1 2-10-12-18-24-13-17-10-13-9-12-4-7z" fill="#F47D54"/>
<path transform="translate(1332,218)" d="m0 0 2 3 15 41 15 43 4 12-1 3-16 4-2-6-7-36-9-55z" fill="#CA3C86"/>
<path transform="translate(1568,492)" d="m0 0 6 1 28 11 38 15 27 11 7 3-3 1-99-23-8-2z" fill="#F07259"/>
<path transform="translate(1309,574)" d="m0 0 9 5 7 5-2 5-11 13-11 14-9 11-13 16-4 3 1-8 3-13 12-22 15-25z" fill="#F37B55"/>
<path transform="translate(1430,597)" d="m0 0h2l1 12 2 83v8l-2-1-11-53-8-40v-6z" fill="#F68441"/>
<path transform="translate(1291,519)" d="m0 0 4 2 11 7 16 5h21l15-3-1 2 2 2-3 3-6 5-8 4-5 2-11 1-9 4-6 1-5-2-10-12-8-13 1-5z" fill="#E66561"/>
<path transform="translate(1234,280)" d="m0 0 7 6 15 13 14 11 10 9 11 9 11 10 8 7-6 7-7 7-5-5-10-11-22-28-20-26-6-7z" fill="#CB3C85"/>
<path transform="translate(1341,592)" d="m0 0 10 2 8 3-9 20-27 54-8 14-1-4 15-51 11-36z" fill="#F58151"/>
<path transform="translate(1176,377)" d="m0 0 18 4 38 9 35 9 2 1-2 8-11 3-3 1-14-4-20-9-25-12-17-8z" fill="#CA3C86"/>
<path transform="translate(1549,525)" d="m0 0 4 1 21 16 18 13 21 16 1 2-9-3-28-13-29-14-17-9 1-2 13-5z" fill="#F37B55"/>
<path transform="translate(187,337)" d="m0 0 5 2 1 2 1 26 3 1h7l4-4 1-24 4-3 5 2 1 1v34l-3 3-5-1-1-3-7 4h-10l-6-4-3-4-1-3v-26z" fill="#FAFAFA"/>
<path transform="translate(1563,452)" d="m0 0 12 1 47 7 24 4 1 2-8 1-21 1h-56l-5-7z" fill="#EE6F5B"/>
<path transform="translate(835,441)" d="m0 0h22l5 3 4 5 1 8-3 8-6 4h-24v-27z"/>
<path transform="translate(385,337)" d="m0 0 5 2 10 24 2-2 8-21 5-3 4 2v6l-14 34-4 10-2 2h-6l-1-1 1-9 1-6-12-29-1-6z" fill="#FAFAFA"/>
<path transform="translate(752,441)" d="m0 0h22l5 3 4 6v11l-4 6-3 2h-24z"/>
<path transform="translate(1551,339)" d="m0 0h5l-2 4-17 12-18 13-10 7-5-5-7-9v-2l26-15 5-3h3v2l9 1 1-1 6-1 3-1z" fill="#DF5A6C"/>
<path transform="translate(1313,292)" d="m0 0 5 5 7 11 12 18 1 3-16 9-3-3-14-27-3-6 1-4 6-4z" fill="#CB3C85"/>
<path transform="translate(1392,272)" d="m0 0 5 1 1 1 2 24v19h-19v-11l1-19 2-11z" fill="#CB3C85"/>
<path transform="translate(881,574)" d="m0 0 9 1 6 5 2 4v11l-4 6-4 3h-11l-6-4-3-6v-9l3-6 5-4z" fill="#FAFAFA"/>
<path transform="translate(284,327)" d="m0 0h5l2 2v9h9l1 1v6l-2 1h-8l1 21 7 1 2 5-3 3-2 1h-7l-5-3-2-2-1-4v-22h-5l-2-3 1-4 1-1h5l1-9z" fill="#FAFAFA"/>
<path transform="translate(377,575)" d="m0 0h16l6 5 2 5v9l-3 6-6 4h-15l-1-1v-27z" fill="#FAFAFA"/>
<path transform="translate(1039,575)" d="m0 0h17l3 3 1 6-2 5 3 4v6l-3 4-3 1h-16l-1-1v-27z" fill="#FAFAFA"/>
<path transform="translate(1377,600)" d="m0 0 18 1 1 4-7 33h-1v-8h-6l-5 2-1 3h-2l1-23 1-11z" fill="#F48052"/>
<path transform="translate(258,320)" d="m0 0 6 1 1 2v51l-3 3-5-1-2-2v-51z" fill="#FAFAFA"/>
<path transform="translate(1534,380)" d="m0 0h7l4 5 7 1 5 1v2l-19 9-11 5-4-1-7-14v-2z" fill="#E56461"/>
<path transform="translate(1493,565)" d="m0 0h2l12 22v4l-6 5-2 3 3 5-3-1-14-19-5-7 5-5z" fill="#F68250"/>
<path transform="translate(425,575)" d="m0 0h16l5 5v8l-3 4 4 9-1 3-4-1-4-9-9-1v10l-4 1-1-1v-27z" fill="#FAFAFA"/>
<path transform="translate(1559,594)" d="m0 0 4 1v2h2l4 6 5 2 2-2 9 10 24 26 7 8 5 5-1 2-10-9-14-11-9-8-11-9-14-12-4-4-1-5h2z" fill="#F07259"/>
<path transform="translate(782,575)" d="m0 0h17l5 6v6l-3 4 3 10v3l-5-1-4-9-8-1-1 11h-4l-1-27z" fill="#FAFAFA"/>
<path transform="translate(1545,573)" d="m0 0 4 1 9 10 15 16 2 2-1 4-6-3-3-4v-2h-2v-2l-4-1v2h-2l2 5-4-2-11-9-9-7 2-7h2l1-2 5 1z" fill="#F47C54"/>
<path transform="translate(828,575)" d="m0 0h15l5 4 1 8-5 6-3 1h-9v9l-4 1-1-1v-27z" fill="#FAFAFA"/>
<path transform="translate(691,575)" d="m0 0h15l5 5 1 5-2 5-5 4h-10v9l-4 1-1-1v-27z" fill="#FAFAFA"/>
<path transform="translate(1332,218)" d="m0 0 2 3 15 41 5 14v2l-9 3-1 6h-1l-6-36-5-29z" fill="#B726A4"/>
<path transform="translate(1486,653)" d="m0 0 2 4 15 57 2 10-2-2-10-24-15-35 2-4 4-1z" fill="#F37A56"/>
<path transform="translate(353,345)" d="m0 0 7 1 5 6 1 7-3 6-3 3-8 1-5-3-2-4v-10l2-4z"/>
<path transform="translate(1285,551)" d="m0 0 4 2 9 10-2 4-14 12-4 3h-2v-22z" fill="#EF705A"/>
<path transform="translate(586,575)" d="m0 0 5 1 10 13 3 4 1-17 4-1 1 1v27l-5 1-14-19-1 18-4 1-1-14z" fill="#FAFAFA"/>
<path transform="translate(220,574)" d="m0 0 9 1 4 3-2 4-5-2h-7l-5 5v9l4 4 2 1h6l2-1v-5l-6-1 1-4h10l1 1v12l-5 3h-12l-6-4-3-6v-10l4-6 4-3z" fill="#FAFAFA"/>
<path transform="translate(236,337)" d="m0 0 4 1 1 2v34l-3 3-5-1-2-3v-32l2-3z" fill="#FAFAFA"/>
<path transform="translate(1571,540)" d="m0 0 9 6 17 13 16 12 1 2-9-3-41-19 6-7z" fill="#F07359"/>
<path transform="translate(1530,557)" d="m0 0 5 2 12 13-1 2-5 1-4 1v6l-4-1-14-12-3-3 4-1v-2h2v-2l4-2h4z" fill="#F47D53"/>
<path transform="translate(677,451)" d="m0 0 3 4 9 22v2h-24l10-25z"/>
<path transform="translate(1140,451)" d="m0 0h2l10 25v3h-23l3-10z"/>
<path transform="translate(967,575)" d="m0 0h19v4h-15v8h12l1 4-12 1-1 7h14l1 5h-19l-1-1v-27z" fill="#FAFAFA"/>
<path transform="translate(1459,307)" d="m0 0h8l4 2-1 6-8 17-9-3-8-4 1-5 7-4h6l1-6z" fill="#D44A76"/>
<path transform="translate(949,658)" d="m0 0 6 1 4 3 1 3v8l-3 5-3 2h-6l-6-5-1-7 3-7z"/>
<path transform="translate(929,574)" d="m0 0 9 1 4 3-1 4-6-2h-7l-1 4 8 3 6 3 2 4-1 6-5 4h-11l-5-3-1-3 4-2 5 3h8v-5l-13-5-3-4 1-7 4-3z" fill="#FAFAFA"/>
<path transform="translate(543,575)" d="m0 0h19v4h-15v8h12l1 4-12 1v7h13l2 4-1 1h-19l-1-1v-27z" fill="#FAFAFA"/>
<path transform="translate(1139,658)" d="m0 0 6 1 5 5v10l-4 5-2 1h-6l-5-4-1-3v-8l4-6z"/>
<path transform="translate(258,575)" d="m0 0h4l1 11 13 1v-11l5-1v28l-4 1-1-1v-12l-13 1-1 12h-4z" fill="#FAFAFA"/>
<path transform="translate(881,579)" d="m0 0h6l5 4 1 2v9l-4 5-7 1-5-3-2-3v-9l4-5z"/>
<path transform="translate(1553,262)" d="m0 0v3l-13 18-13 17-2-1h-3l-5 3h-3l1 4-6-2 6-7 8-7 15-14 8-7z" fill="#C93B87"/>
<path transform="translate(697,656)" d="m0 0h12l5 4v9l-4 3h-11v10l-3-1v-24z" fill="#FAFAFA"/>
<path transform="translate(1520,613)" d="m0 0 3 4 18 35 4 7-1 2-10-12-18-24-4-5 1-3h6z" fill="#F37B55"/>
<path transform="translate(1085,575)" d="m0 0 4 1 1 21 3 2 7-1 2-3 1-20h4v23l-4 5-2 1h-11l-5-5-1-2v-21z" fill="#FAFAFA"/>
<path transform="translate(658,656)" d="m0 0h12l5 5v7l-4 4h-11v10l-3-1v-24z" fill="#FAFAFA"/>
<path transform="translate(734,575)" d="m0 0h4l1 2v17l2 4 7 1 3-2 1-3 1-19h4v22l-3 5-4 2h-10l-5-4-1-2z" fill="#FAFAFA"/>
<path transform="translate(257,656)" d="m0 0h12l4 3 1 8-4 5h-11v9l-3 1v-25z" fill="#FAFAFA"/>
<path transform="translate(145,353)" d="m0 0 14 1 3 3 1 5-3 5-2 1h-17v-14z"/>
<path transform="translate(381,579)" d="m0 0h9l5 4 1 8-3 7-5 2h-6l-1-1z"/>
<path transform="translate(1424,508)" d="m0 0 5 5 8 11-4 4-10 3-4 2h-6v-2l-2-1 8-7 4-10z" fill="#EF715A"/>
<path transform="translate(496,575)" d="m0 0 4 1 7 17v3h2l1-6 5-13 2-2 4 1-6 17-5 11-5-1-10-25z" fill="#FAFAFA"/>
<path transform="translate(1521,195)" d="m0 0 1 3-13 30-7 17h-2v-2l-6 2h-3l16-26 13-22z" fill="#B726A4"/>
<path transform="translate(623,656)" d="m0 0 4 1 9 23v2l-3-1-2-6h-13l-2 6-3 1 3-9z" fill="#FAFAFA"/>
<path transform="translate(846,656)" d="m0 0 3 1 9 22v3l-3-1-2-5h-12l-3 6h-2l1-5 8-20z" fill="#FAFAFA"/>
<path transform="translate(1176,656)" d="m0 0h2l8 15v3h2l2-5 7-13 3 1v24l-3 1v-20h-2l-1 5-6 11h-2l-7-13v-2h-2v19h-2v-25z" fill="#FAFAFA"/>
<path transform="translate(141,332)" d="m0 0h13l5 3v7l-5 3h-13z"/>
<path transform="translate(1196,575)" d="m0 0h22v4h-8v24l-4 1-1-1v-24h-9z" fill="#FAFAFA"/>
<path transform="translate(304,575)" d="m0 0h22l-1 4h-8v24l-4 1-1-1v-24h-8z" fill="#FAFAFA"/>
<path transform="translate(138,575)" d="m0 0h4v24h12l2 1v4h-18l-1-1v-27z" fill="#FAFAFA"/>
<path transform="translate(1162,575)" d="m0 0h4l1 24 13 1v4h-18l-1-1v-27z" fill="#FAFAFA"/>
<path transform="translate(1137,656)" d="m0 0h8l5 3 3 6v9l-4 6-3 2h-10l-5-4-2-5v-8l4-7zm2 2-5 3-2 4v8l3 5 3 2h6l5-4 1-2v-10l-5-5z" fill="#FAFAFA"/>
<path transform="translate(946,656)" d="m0 0h9l5 3 3 6v8l-3 6-4 3h-10l-6-5-1-3v-10l4-6zm3 2-5 3-3 7 1 7 6 5h6l5-4 1-3v-8l-3-5-4-2z" fill="#FAFAFA"/>
<path transform="translate(1481,636)" d="m0 0 2 3 3 11v7l-7 4h-2l-5-12 1-3 7-6z" fill="#F37A54"/>
<path transform="translate(985,656)" d="m0 0 4 2 12 17 1-3v-15l3-1v26l-4-1-12-17-1-1-1 19h-2z" fill="#FAFAFA"/>
<path transform="translate(1447,215)" d="m0 0h1l-1 13-4 26h-9l3-11z" fill="#B726A4"/>
<path transform="translate(138,656)" d="m0 0h2v12h14v-11l3-1v26h-3v-12h-14v12l-3-1v-24z" fill="#FAFAFA"/>
<path transform="translate(537,656)" d="m0 0 3 1v11h14v-11h3v24l-3 1v-12h-14v11l-3 1z" fill="#FAFAFA"/>
<path transform="translate(1500,582)" d="m0 0 5 1 2 4v4l-6 5-2 3 3 5-3-1-9-12v-3l5-2z" fill="#F78541"/>
<path transform="translate(1375,612)" d="m0 0h1v9l3-1 5 2 8-1-2 13-2 4v-8h-6l-5 2-1 3h-2z" fill="#F48052"/>
<path transform="translate(1515,539)" d="m0 0 4 2 4 6-2 6-2 2-9 1-5-2 3-5z" fill="#F47C54"/>
<path transform="translate(1482,408)" d="m0 0 6 1 5-1 5 1-3 3-9 5-5 4h-2l-4-6-5-3v-2l2-1h9z" fill="#E56362"/>
<path transform="translate(1234,280)" d="m0 0 7 6 15 13 6 5 1 4h-3l1 4-2 2-9-12-10-13-6-7z" fill="#B726A4"/>
<path transform="translate(1591,622)" d="m0 0 4 2 14 15 7 8 5 5-1 2-10-9-14-11-8-7v-2h2z" fill="#ED6E5C"/>
<path transform="translate(299,656)" d="m0 0h8l4 3v2l-6-2-6 1-1 5 11 4 3 3v6l-4 4h-10l-4-2v-3l5 2h7l3-3-2-4-11-4-2-3 1-6z" fill="#FAFAFA"/>
<path transform="translate(1631,283)" d="m0 0 2 1-14 11-16 12-2-1v-2l-6 1v-2l22-12z" fill="#C93B88"/>
<path transform="translate(1032,656)" d="m0 0h8l4 2v3l-6-2-6 1-1 5 11 4 3 3v6l-4 4h-10l-4-3v-2l5 2h7l3-3-2-4-11-4-2-3 1-6z" fill="#FAFAFA"/>
<path transform="translate(1494,683)" d="m0 0 2 4 9 34-1 3-11-26-4-9v-4h4z" fill="#EF735A"/>
<path transform="translate(803,656)" d="m0 0h9l4 3v2l-6-2-7 1-3 3-1 8 2 6 4 2h6l5-2-1 4-2 1h-10l-5-3-3-8 1-8 5-6z" fill="#FAFAFA"/>
<path transform="translate(180,575)" d="m0 0 5 1v27l-5 1-1-3z" fill="#FAFAFA"/>
<path transform="translate(1133,575)" d="m0 0 4 1v27l-4 1-1-1v-27z" fill="#FAFAFA"/>
<path transform="translate(470,575)" d="m0 0h4v29h-4l-1-2v-25z" fill="#FAFAFA"/>
<path transform="translate(503,656)" d="m0 0h8l4 3-1 2-5-2-7 1-3 4v10l5 5h6l5-2-1 4-3 1h-9l-5-4-2-5v-9l4-6z" fill="#FAFAFA"/>
<path transform="translate(1392,609)" d="m0 0 2 1-1 10-9 3-7-2v-5l5-2 7-3z" fill="#F7863E"/>
<path transform="translate(700,658)" d="m0 0 9 1 3 4-1 5-3 2h-9v-11z"/>
<path transform="translate(454,656)" d="m0 0h2l1 19 3 4h6l4-4 1-19h2v21l-5 5h-9l-5-5z" fill="#FAFAFA"/>
<path transform="translate(1097,656)" d="m0 0h8l4 3v2l-6-2-7 1-3 4-1 8 2 5 4 2h6l4-2v4l-3 1h-9l-6-5-1-3v-10l3-5z" fill="#FAFAFA"/>
<path transform="translate(1678,403)" d="m0 0h7l-3 2-34 7-3-1 2-3-7-1v-1z" fill="#D75075"/>
<path transform="translate(660,659)" d="m0 0h10l3 5-2 5-2 1h-9z"/>
<path transform="translate(216,656)" d="m0 0h19l-1 3h-7v23h-3v-23h-8z" fill="#FAFAFA"/>
<path transform="translate(259,659)" d="m0 0h10l2 2v6l-3 3h-9z"/>
<path transform="translate(1520,613)" d="m0 0 3 4 4 9-5 4-3-1-7-9 1-3h6z" fill="#F27956"/>
<path transform="translate(1593,557)" d="m0 0 4 2 16 12 1 2-9-3-17-8z" fill="#ED6E5C"/>
<path transform="translate(1580,548)" d="m0 0 5 2 8 6v2l-4 3-6-1-8-4v-2l5-1z" fill="#F37956"/>
<path transform="translate(1501,393)" d="m0 0 3 1 6 12v2h-9l-4-2h2v-3l-3-1 5-6z" fill="#E56462"/>
<path transform="translate(429,579)" d="m0 0h10l2 2v6l-3 2h-9z"/>
<path transform="translate(1168,307)" d="m0 0 5 2 22 11v4l-1 4-18-14-8-6z" fill="#B726A4"/>
<path transform="translate(832,579)" d="m0 0h9l3 3-1 6-1 1h-10z"/>
<path transform="translate(695,579)" d="m0 0h9l3 3-1 6-1 1h-10z"/>
<path transform="translate(787,579)" d="m0 0h9l3 3-1 5-2 2h-9z"/>
<path transform="translate(1043,591)" d="m0 0h11l2 2-1 5-3 2h-8l-1-1z"/>
<path transform="translate(1369,694)" d="m0 0h1l1 6h2l2-3-1 9-6 24h-1l1-20z" fill="#EF735A"/>
<path transform="translate(422,656)" d="m0 0h2l1 23 12 1v2h-16v-25z" fill="#FAFAFA"/>
<path transform="translate(1433,642)" d="m0 0h1l1 58-2-1-4-18 1-3 2-4z" fill="#E96A5F"/>
<path transform="translate(735,656)" d="m0 0 3 1v23h13l-1 2h-15z" fill="#FAFAFA"/>
<path transform="translate(1539,568)" d="m0 0 5 1 3 3-1 2-5 1-4 1v6l-4-1-5-4v-2l11-3z" fill="#F6834F"/>
<path transform="translate(578,656)" d="m0 0h18v3h-8v23h-2l-1-23-8-1z" fill="#FAFAFA"/>
<path transform="translate(875,656)" d="m0 0h18l1 2-8 2-1 22h-2l-1-23-8-1z" fill="#FAFAFA"/>
<path transform="translate(178,656)" d="m0 0h18l1 2-8 1-1 23h-2l-1-23-8-1z" fill="#FAFAFA"/>
<path transform="translate(1320,660)" d="m0 0 4 4-1 7-8 14-1-4z" fill="#F17954"/>
<path transform="translate(1346,571)" d="m0 0h5l1 4-2 2 3 3-8-1-8-4-1-3h8z" fill="#F27956"/>
<path transform="translate(1566,538)" d="m0 0 5 2 1 3-7 7-5-1-4-2v-2l4-1 5-3z" fill="#F68350"/>
<path transform="translate(234,322)" d="m0 0h5l2 2v6l-2 2-7-1-1-6z" fill="#FAFAFA"/>
<path transform="translate(1483,647)" d="m0 0 1 3h2v7l-7 4h-2l-1-7 1-2h3l1-3h2z" fill="#F78544"/>
<path transform="translate(1043,579)" d="m0 0h9l2 1v5l-2 2h-9z"/>
<path transform="translate(1374,519)" d="m0 0m-1 1m-2 1 2 1-1 1 5 1v6l-9 1-4-1v-2l-2-1z" fill="#E66561"/>
<path transform="translate(915,656)" d="m0 0 2 1v25h-3v-25z" fill="#FAFAFA"/>
<path transform="translate(772,656)" d="m0 0 2 1v25h-3v-25z" fill="#FAFAFA"/>
<path transform="translate(846,661)" d="m0 0h2l4 10v2h-10l3-10z"/>
<path transform="translate(1584,615)" d="m0 0 4 1 4 6-4 4-5-3-2-4 1-3z" fill="#F37956"/>
<path transform="translate(624,661)" d="m0 0 3 3 2 5v4h-9l1-6z"/>
<path transform="translate(1562,592)" d="m0 0 6 3 7 7-1 4-6-3-3-4v-2h-2z" fill="#F37A55"/>
<path transform="translate(398,656)" d="m0 0h2l-1 6-9 20-2 1 1-6z" fill="#FAFAFA"/>
<path transform="translate(367,656)" d="m0 0h2l-1 5-9 21-3 1 3-9z" fill="#FAFAFA"/>
<path transform="translate(1483,576)" d="m0 0 6 1 3 2-2 5-4 1-5-6v-2z" fill="#F68540"/>
<path transform="translate(1535,642)" d="m0 0 3 4 7 13-1 2-10-12-1-5h2z" fill="#ED6E5C"/>
<path transform="translate(1650,405)" d="m0 0h9l-2 5-12 2 2-4-7-1v-1z" fill="#DC566F"/>
<path transform="translate(1571,540)" d="m0 0 7 5-1 2-6 2-3 2-4-1 7-7z" fill="#F37A55"/>
<path transform="translate(1478,523)" d="m0 0 5 2 3 3h-3l-5 1-1 3-4-1-1-2 5-4z" fill="#F07658"/>
<path transform="translate(1494,683)" d="m0 0 2 4-1 5-2 2-3-3-1-6h4z" fill="#EF715A"/>
<path transform="translate(1517,623)" d="m0 0h9l1 3-5 4-3-1-2-5z" fill="#F07359"/>
<path transform="translate(634,599)" d="m0 0 5 1-1 7-4 3v-4l-1-6z" fill="#FAFAFA"/>
<path transform="translate(1530,636)" d="m0 0h3l2 4-1 6-3-1-3-4 1-4z" fill="#F17857"/>
<path transform="translate(1378,602)" d="m0 0 10 1v4h-10z" fill="#F9893C"/>
<path transform="translate(1516,608)" d="m0 0 3 1 1 6-3 3h-3z" fill="#F68350"/>
<path transform="translate(1368,710)" d="m0 0 1 4h2l-1 9-2 7h-1z" fill="#E76762"/>
<path transform="translate(1416,613)" d="m0 0h5l2 4-4 1-1 3-2-4z" fill="#F47F52"/>
<path transform="translate(1545,535)" d="m0 0h4v5l1 2-6-1-1-5z" fill="#F6834E"/>
<path transform="translate(1309,574)" d="m0 0 6 3-5 4-3 1-1-4z" fill="#EC6C5D"/>
<path transform="translate(1494,566)" d="m0 0 4 4-1 4v-2h-8z" fill="#F68342"/>
<path transform="translate(1534,380)" d="m0 0 3 1-2 2 2 2-6 2-3-3v-2z" fill="#DE5A6C"/>
<path transform="translate(1317,671)" d="m0 0 2 3-1 6-4 5 1-8z" fill="#EA6C5B"/>
<path transform="translate(1386,639)" d="m0 0 2 1-1 8-5-3v-4z" fill="#F47F53"/>
<path transform="translate(1278,574)" d="m0 0 6 1-2 4-5 2v-6z" fill="#F27856"/>
<path transform="translate(1567,505)" d="m0 0 5 2 3 3h-8l-3-1v-2z" fill="#F17757"/>
<path transform="translate(1519,294)" d="m0 0m-1 1m-1 1m-2 1 2 1-3 4 1 4-6-2z" fill="#CC3E83"/>
<path transform="translate(1432,684)" d="m0 0 2 4 1 4v8l-2-1-1-4z" fill="#E96C57"/>
<path transform="translate(1500,709)" d="m0 0 2 1 3 11-1 3-5-12z" fill="#E86661"/>
<path transform="translate(1623,355)" d="m0 0 4 1-11 5v-3z" fill="#CD4081"/>
</svg>
